# This file uses centimeters as units for non-parametric coordinates.

mtllib mobius_special.mtl
g default
v -7.763508 -0.020381 2.500000
v -6.945333 -0.753051 2.208100
v -6.066031 -1.393596 1.831345
v -5.131169 -1.922887 1.384211
v -4.149407 -2.325085 0.883883
v -3.131946 -2.588436 0.349589
v -2.091821 -2.705865 -0.198141
v -1.043097 -2.675342 -0.738256
v 0.000000 -2.500000 -1.250000
v 1.023949 -2.187992 -1.713707
v 2.016759 -1.752106 -2.111558
v 2.968695 -1.209138 -2.428263
v 3.872868 -0.579082 -2.651650
v 4.725640 0.115846 -2.773137
v 5.526842 0.852286 -2.788053
v 6.279771 1.606853 -2.695826
v 6.990966 2.357260 -2.500000
v -6.990966 2.357260 2.500000
v -6.279771 1.606853 2.695826
v -5.526842 0.852286 2.788053
v -4.725640 0.115846 2.773137
v -3.872868 -0.579082 2.651650
v -2.968695 -1.209138 2.428263
v -2.016759 -1.752106 2.111558
v -1.023949 -2.187992 1.713707
v 0.000000 -2.500000 1.250000
v 1.043097 -2.675342 0.738256
v 2.091821 -2.705865 0.198141
v 3.131946 -2.588436 -0.349589
v 4.149407 -2.325085 -0.883883
v 5.131169 -1.922887 -1.384211
v 6.066031 -1.393596 -1.831345
v 6.945333 -0.753051 -2.208100
v 7.763508 -0.020381 -2.500000
v -6.990966 2.357260 -2.500000
v -6.014994 2.545682 -2.208100
v -5.080164 2.712835 -1.831345
v -4.183708 2.840322 -1.384211
v -3.319788 2.912923 -0.883883
v -2.480051 2.919393 -0.349589
v -1.654325 2.853052 0.198141
v -0.831421 2.712153 0.738256
v 0.000000 2.500000 1.250000
v 0.850569 2.224803 1.713707
v 1.729387 1.899292 2.111558
v 2.643302 1.540095 2.428263
v 3.596328 1.166921 2.651650
v 4.589237 0.801589 2.773137
v 5.619353 0.466953 2.788053
v 6.680556 0.185777 2.695826
v 7.763508 -0.020381 2.500000
v -7.763508 -0.020381 -2.500000
v -6.680556 0.185777 -2.695826
v -5.619353 0.466953 -2.788053
v -4.589237 0.801589 -2.773137
v -3.596328 1.166921 -2.651650
v -2.643302 1.540095 -2.428263
v -1.729387 1.899292 -2.111558
v -0.850569 2.224803 -1.713707
v 0.000000 2.500000 -1.250000
v 0.831421 2.712153 -0.738256
v 1.654325 2.853052 -0.198141
v 2.480051 2.919393 0.349589
v 3.319788 2.912923 0.883883
v 4.183708 2.840322 1.384211
v 5.080164 2.712835 1.831345
v 6.014994 2.545682 2.208100
v 6.990966 2.357260 2.500000
vt 0.375000 0.000000
vt 0.390625 0.000000
vt 0.406250 0.000000
vt 0.421875 0.000000
vt 0.437500 0.000000
vt 0.453125 0.000000
vt 0.468750 0.000000
vt 0.484375 0.000000
vt 0.500000 0.000000
vt 0.515625 0.000000
vt 0.531250 0.000000
vt 0.546875 0.000000
vt 0.562500 0.000000
vt 0.578125 0.000000
vt 0.593750 0.000000
vt 0.609375 0.000000
vt 0.625000 0.000000
vt 0.375000 0.250000
vt 0.390625 0.250000
vt 0.406250 0.250000
vt 0.421875 0.250000
vt 0.437500 0.250000
vt 0.453125 0.250000
vt 0.468750 0.250000
vt 0.484375 0.250000
vt 0.500000 0.250000
vt 0.515625 0.250000
vt 0.531250 0.250000
vt 0.546875 0.250000
vt 0.562500 0.250000
vt 0.578125 0.250000
vt 0.593750 0.250000
vt 0.609375 0.250000
vt 0.625000 0.250000
vt 0.375000 0.500000
vt 0.390625 0.500000
vt 0.406250 0.500000
vt 0.421875 0.500000
vt 0.437500 0.500000
vt 0.453125 0.500000
vt 0.468750 0.500000
vt 0.484375 0.500000
vt 0.500000 0.500000
vt 0.515625 0.500000
vt 0.531250 0.500000
vt 0.546875 0.500000
vt 0.562500 0.500000
vt 0.578125 0.500000
vt 0.593750 0.500000
vt 0.609375 0.500000
vt 0.625000 0.500000
vt 0.375000 0.750000
vt 0.390625 0.750000
vt 0.406250 0.750000
vt 0.421875 0.750000
vt 0.437500 0.750000
vt 0.453125 0.750000
vt 0.468750 0.750000
vt 0.484375 0.750000
vt 0.500000 0.750000
vt 0.515625 0.750000
vt 0.531250 0.750000
vt 0.546875 0.750000
vt 0.562500 0.750000
vt 0.578125 0.750000
vt 0.593750 0.750000
vt 0.609375 0.750000
vt 0.625000 0.750000
vt 0.375000 1.000000
vt 0.390625 1.000000
vt 0.406250 1.000000
vt 0.421875 1.000000
vt 0.437500 1.000000
vt 0.453125 1.000000
vt 0.468750 1.000000
vt 0.484375 1.000000
vt 0.500000 1.000000
vt 0.515625 1.000000
vt 0.531250 1.000000
vt 0.546875 1.000000
vt 0.562500 1.000000
vt 0.578125 1.000000
vt 0.593750 1.000000
vt 0.609375 1.000000
vt 0.625000 1.000000
vt 0.875000 0.000000
vt 0.875000 0.250000
vt 0.125000 0.000000
vt 0.125000 0.250000
vn -0.028458 -0.093815 0.995183
vn -0.069879 -0.266588 0.961274
vn -0.032441 -0.110393 0.993358
vn -0.028458 -0.093815 0.995183
vn -0.098810 -0.445781 0.889672
vn -0.076124 -0.298840 0.951262
vn -0.110686 -0.609338 0.785147
vn -0.102383 -0.479378 0.871616
vn -0.106832 -0.750090 0.652650
vn -0.111066 -0.643875 0.757026
vn -0.089798 -0.862110 0.498701
vn -0.103242 -0.784667 0.611259
vn -0.062990 -0.941847 0.330085
vn -0.081128 -0.894723 0.439191
vn -0.029262 -0.988438 0.148777
vn -0.048150 -0.967704 0.247449
vn 0.009289 -0.998871 -0.046589
vn -0.009289 -0.998871 0.046589
vn 0.048150 -0.967704 -0.247449
vn 0.029262 -0.988438 -0.148777
vn 0.081128 -0.894723 -0.439191
vn 0.062990 -0.941847 -0.330085
vn 0.103242 -0.784668 -0.611259
vn 0.089798 -0.862110 -0.498701
vn 0.111066 -0.643875 -0.757026
vn 0.106832 -0.750090 -0.652650
vn 0.102383 -0.479378 -0.871616
vn 0.110686 -0.609338 -0.785147
vn 0.076124 -0.298840 -0.951262
vn 0.098810 -0.445781 -0.889672
vn 0.032441 -0.110393 -0.993358
vn 0.069879 -0.266588 -0.961274
vn 0.028458 -0.093815 -0.995183
vn 0.028458 -0.093815 -0.995183
vn 0.288887 0.952334 0.097998
vn 0.259469 0.939538 0.223483
vn 0.271485 0.946419 0.174893
vn 0.288887 0.952334 0.097998
vn 0.204342 0.882770 0.423037
vn 0.220218 0.902798 0.369405
vn 0.148323 0.786259 0.599831
vn 0.166898 0.822105 0.544324
vn 0.096742 0.656253 0.748314
vn 0.116333 0.709943 0.694584
vn 0.053779 0.499638 0.864564
vn 0.072040 0.571559 0.817393
vn 0.022577 0.324160 0.945733
vn 0.036720 0.411529 0.910657
vn 0.005118 0.138636 0.990330
vn 0.012699 0.234566 0.972017
vn 0.001932 -0.046992 0.998893
vn 0.001932 0.046545 0.998914
vn 0.011774 -0.222894 0.974771
vn 0.005642 -0.145295 0.989372
vn 0.032451 -0.385333 0.922207
vn 0.023978 -0.332886 0.942662
vn 0.063592 -0.538561 0.840183
vn 0.055872 -0.507995 0.859546
vn 0.105455 -0.680427 0.725188
vn 0.099072 -0.662761 0.742249
vn 0.155901 -0.801166 0.577778
vn 0.150229 -0.790045 0.594357
vn 0.210822 -0.891210 0.401619
vn 0.204986 -0.883625 0.420938
vn 0.264756 -0.942813 0.202503
vn 0.257919 -0.938507 0.229525
vn 0.288888 -0.952334 0.097998
vn 0.288888 -0.952334 0.097998
vn 0.028458 0.093814 -0.995183
vn 0.062181 0.234419 -0.970145
vn 0.037159 0.130040 -0.990812
vn 0.028458 0.093814 -0.995183
vn 0.093988 0.414110 -0.905362
vn 0.077799 0.309522 -0.947704
vn 0.108935 0.579413 -0.807721
vn 0.102707 0.483998 -0.869021
vn 0.108154 0.724231 -0.681023
vn 0.111052 0.644403 -0.756580
vn 0.093443 0.843612 -0.528760
vn 0.103513 0.782814 -0.613585
vn 0.066931 0.932949 -0.353733
vn 0.081920 0.892289 -0.443969
vn 0.031284 0.986728 -0.159340
vn 0.049120 0.966345 -0.252518
vn -0.009388 0.998847 0.047086
vn 0.009388 0.998847 -0.047086
vn -0.049120 0.966345 0.252518
vn -0.031284 0.986728 0.159340
vn -0.081920 0.892289 0.443969
vn -0.066931 0.932949 0.353733
vn -0.103513 0.782815 0.613585
vn -0.093443 0.843612 0.528760
vn -0.111052 0.644403 0.756580
vn -0.108154 0.724231 0.681023
vn -0.102707 0.483998 0.869021
vn -0.108935 0.579413 0.807721
vn -0.077799 0.309522 0.947704
vn -0.093988 0.414110 0.905362
vn -0.037159 0.130040 0.990812
vn -0.062181 0.234419 0.970145
vn -0.028458 0.093814 0.995183
vn -0.028458 0.093814 0.995183
vn -0.288887 -0.952334 -0.097998
vn -0.257919 -0.938507 -0.229525
vn -0.264756 -0.942813 -0.202503
vn -0.288887 -0.952334 -0.097998
vn -0.204986 -0.883625 -0.420938
vn -0.210822 -0.891210 -0.401619
vn -0.150229 -0.790045 -0.594357
vn -0.155901 -0.801166 -0.577778
vn -0.099072 -0.662761 -0.742249
vn -0.105455 -0.680427 -0.725188
vn -0.055873 -0.507995 -0.859546
vn -0.063592 -0.538561 -0.840183
vn -0.023978 -0.332886 -0.942662
vn -0.032451 -0.385333 -0.922207
vn -0.005642 -0.145295 -0.989372
vn -0.011774 -0.222894 -0.974771
vn -0.001932 0.046545 -0.998914
vn -0.001932 -0.046992 -0.998893
vn -0.012699 0.234566 -0.972017
vn -0.005118 0.138636 -0.990330
vn -0.036720 0.411529 -0.910657
vn -0.022577 0.324160 -0.945733
vn -0.072040 0.571559 -0.817393
vn -0.053779 0.499638 -0.864564
vn -0.116333 0.709944 -0.694584
vn -0.096742 0.656253 -0.748314
vn -0.166898 0.822105 -0.544324
vn -0.148323 0.786259 -0.599831
vn -0.220218 0.902798 -0.369405
vn -0.204342 0.882770 -0.423037
vn -0.271485 0.946419 -0.174893
vn -0.259469 0.939538 -0.223483
vn -0.288887 0.952334 -0.097998
vn -0.288887 0.952334 -0.097998
vn 0.951057 0.309017 0.000000
vn 0.951057 0.309017 0.000000
vn 0.951057 0.309017 0.000000
vn 0.951057 0.309017 0.000000
vn -0.951057 0.309017 0.000000
vn -0.951057 0.309017 0.000000
vn -0.951057 0.309017 0.000000
vn -0.951057 0.309017 0.000000
s 1
g pCube1
usemtl initialShadingGroup
f 1/1/1 2/2/2 19/19/3 18/18/4
f 2/2/2 3/3/5 20/20/6 19/19/3
f 3/3/5 4/4/7 21/21/8 20/20/6
f 4/4/7 5/5/9 22/22/10 21/21/8
f 5/5/9 6/6/11 23/23/12 22/22/10
f 6/6/11 7/7/13 24/24/14 23/23/12
f 7/7/13 8/8/15 25/25/16 24/24/14
f 8/8/15 9/9/17 26/26/18 25/25/16
f 9/9/17 10/10/19 27/27/20 26/26/18
f 10/10/19 11/11/21 28/28/22 27/27/20
f 11/11/21 12/12/23 29/29/24 28/28/22
f 12/12/23 13/13/25 30/30/26 29/29/24
f 13/13/25 14/14/27 31/31/28 30/30/26
f 14/14/27 15/15/29 32/32/30 31/31/28
f 15/15/29 16/16/31 33/33/32 32/32/30
f 16/16/31 17/17/33 34/34/34 33/33/32
s 2
f 18/18/35 19/19/36 36/36/37 35/35/38
f 19/19/36 20/20/39 37/37/40 36/36/37
f 20/20/39 21/21/41 38/38/42 37/37/40
f 21/21/41 22/22/43 39/39/44 38/38/42
f 22/22/43 23/23/45 40/40/46 39/39/44
f 23/23/45 24/24/47 41/41/48 40/40/46
f 24/24/47 25/25/49 42/42/50 41/41/48
f 25/25/49 26/26/51 43/43/52 42/42/50
f 26/26/51 27/27/53 44/44/54 43/43/52
f 27/27/53 28/28/55 45/45/56 44/44/54
f 28/28/55 29/29/57 46/46/58 45/45/56
f 29/29/57 30/30/59 47/47/60 46/46/58
f 30/30/59 31/31/61 48/48/62 47/47/60
f 31/31/61 32/32/63 49/49/64 48/48/62
f 32/32/63 33/33/65 50/50/66 49/49/64
f 33/33/65 34/34/67 51/51/68 50/50/66
s 3
f 35/35/69 36/36/70 53/53/71 52/52/72
f 36/36/70 37/37/73 54/54/74 53/53/71
f 37/37/73 38/38/75 55/55/76 54/54/74
f 38/38/75 39/39/77 56/56/78 55/55/76
f 39/39/77 40/40/79 57/57/80 56/56/78
f 40/40/79 41/41/81 58/58/82 57/57/80
f 41/41/81 42/42/83 59/59/84 58/58/82
f 42/42/83 43/43/85 60/60/86 59/59/84
f 43/43/85 44/44/87 61/61/88 60/60/86
f 44/44/87 45/45/89 62/62/90 61/61/88
f 45/45/89 46/46/91 63/63/92 62/62/90
f 46/46/91 47/47/93 64/64/94 63/63/92
f 47/47/93 48/48/95 65/65/96 64/64/94
f 48/48/95 49/49/97 66/66/98 65/65/96
f 49/49/97 50/50/99 67/67/100 66/66/98
f 50/50/99 51/51/101 68/68/102 67/67/100
s 4
f 52/52/103 53/53/104 2/70/105 1/69/106
f 53/53/104 54/54/107 3/71/108 2/70/105
f 54/54/107 55/55/109 4/72/110 3/71/108
f 55/55/109 56/56/111 5/73/112 4/72/110
f 56/56/111 57/57/113 6/74/114 5/73/112
f 57/57/113 58/58/115 7/75/116 6/74/114
f 58/58/115 59/59/117 8/76/118 7/75/116
f 59/59/117 60/60/119 9/77/120 8/76/118
f 60/60/119 61/61/121 10/78/122 9/77/120
f 61/61/121 62/62/123 11/79/124 10/78/122
f 62/62/123 63/63/125 12/80/126 11/79/124
f 63/63/125 64/64/127 13/81/128 12/80/126
f 64/64/127 65/65/129 14/82/130 13/81/128
f 65/65/129 66/66/131 15/83/132 14/82/130
f 66/66/131 67/67/133 16/84/134 15/83/132
f 67/67/133 68/68/135 17/85/136 16/84/134
s off
f 17/17/137 68/86/138 51/87/139 34/34/140
f 52/88/141 1/1/142 18/18/143 35/89/144
